PathFileType	4	(X/Y/Z)	Patient4_TMGait_0pt2_01_right_13.trc.trc
DataRate	CameraRate	NumFrames	NumMarkers	Units	OrigDataRate	OrigDataStartFrame	OrigNumFrames
40.114613180516	40.114613180516	6	33	mm	40.114613180516	106	       141
Frame#	Time	Sacral			L.Shoulder			Chest			R.Shoulder			Neck			R.ASIS			L.ASIS			R.Thigh.Superior			R.Thigh.Lateral			R.Thigh.Inferior			R.Patella			L.Thigh.Superior			L.Thigh.Lateral			L.Thigh.Inferior			L.Patella			L.Shank.Superior			L.Shank.Lateral			L.Shank.Inferior			R.Shank.Superior			R.Shank.Lateral			R.Shank.Inferior			R.Heel			R.Midfoot.Superior			R.Midfoot.Lateral			R.Toe			L.Heel			L.Midfoot.Lateral			L.Midfoot.Superior			L.Toe			L.Elbow			L.Wrist			R.Elbow			R.Wrist			
		X1	Y1	Z1	X2	Y2	Z2	X3	Y3	Z3	X4	Y4	Z4	X5	Y5	Z5	X6	Y6	Z6	X7	Y7	Z7	X8	Y8	Z8	X9	Y9	Z9	X10	Y10	Z10	X11	Y11	Z11	X12	Y12	Z12	X13	Y13	Z13	X14	Y14	Z14	X15	Y15	Z15	X16	Y16	Z16	X17	Y17	Z17	X18	Y18	Z18	X19	Y19	Z19	X20	Y20	Z20	X21	Y21	Z21	X22	Y22	Z22	X23	Y23	Z23	X24	Y24	Z24	X25	Y25	Z25	X26	Y26	Z26	X27	Y27	Z27	X28	Y28	Z28	X29	Y29	Z29	X30	Y30	Z30	X31	Y31	Z31	X32	Y32	Z32	X33	Y33	Z33	

106	30.887500000000	631.625582556243	989.570220243018	377.299485006900	834.829835569147	1419.495172880143	209.756168145943	918.482000533512	1348.089606111563	380.127020905058	819.733859050286	1418.882932888457	546.624310080832	797.588204200049	1480.998126012140	366.088878909350	854.124607971057	932.878116304622	511.994059329261	859.948670941833	944.283947379945	236.826279404246	936.137953167060	758.547051392752	492.064468045636	891.149203610986	644.702835243109	576.666966945533	982.088029527114	598.213063107797	501.876977277053	999.499494683012	490.746063053433	535.362441971608	917.683754122213	739.787848375687	281.611356435656	842.799969485636	610.918166550145	229.663819084458	930.570572103023	545.465079489220	303.467915541941	934.751371407857	471.056021891112	316.394386684054	892.884480334080	396.657180793894	314.511145652887	787.682284611529	294.172430971031	265.988196468500	814.002634903528	182.879963873330	348.081362354358	927.126864749405	414.917132413809	549.411417686833	806.654922103282	372.886929221256	609.804450276274	804.394097157334	257.723848455439	573.790918274667	610.022180128822	174.167155459222	545.302574309195	781.125802902753	141.069539879879	603.223433044986	670.489822858237	131.184900734322	628.300927433603	854.893585399511	42.079253342095	645.296436344753	663.236813835500	39.721691958504	390.278662880102	740.486498569678	35.668298922128	312.710274296955	824.353340868107	94.852180344559	342.032341253444	952.624389714991	39.806403696797	318.583277390079	903.557598496909	1082.050356309040	72.757420413311	1082.365254997279	892.805443263006	104.269472941521	804.369571728661	1064.448878727486	655.417814749908	918.566846004920	832.410503668254	663.162868321232	
107	30.912428571429	630.260884063694	991.007698519167	373.379463360196	835.629948259625	1420.702400800054	207.563365575487	916.728895660123	1349.798139817994	379.287915222785	815.311383967747	1420.913070708192	544.172819761353	796.055045162203	1482.330793680052	363.312292380086	851.266848053185	934.321082754996	510.330134307377	859.825839224025	945.440440144480	235.254982671623	933.791470709398	761.174822606743	490.998311307945	889.130393724934	646.922417692653	575.551351221470	980.785369690727	601.270789626926	501.243736635476	999.850249599573	494.848481312241	534.939072021115	914.757177048678	739.493235977688	279.336209477427	837.969099788583	611.603308415705	227.253162653022	924.854459366458	545.180756314610	300.860586804142	928.193086575985	471.228408247486	313.921568257001	886.535423337826	397.102659896576	312.270301510964	781.271558879275	294.255944168686	264.325429921720	808.515395279048	183.357296157487	347.019062146310	929.699191549827	417.488415416739	548.323640700951	810.385647759549	371.020008337282	607.129223139360	813.244501757106	256.056961111750	571.142433553373	623.445333070124	163.395951721351	540.067015699149	794.827262157285	139.587953383583	600.025215841799	684.971570919015	124.211672854456	624.119636144086	873.098997367983	44.418946892791	643.688318761776	658.162859140615	39.794400871597	390.146271965445	735.458469266561	35.616667420187	312.614643271374	819.388155398033	94.886378179307	341.685893279972	947.587588412458	39.864928796999	318.604555291061	912.749241718248	1086.375116595796	69.116413954771	1104.534662312732	910.432046541994	101.443517291124	776.975758075703	1068.949431503641	653.021702622443	868.282888511600	825.779209314358	660.872746755468	
108	30.937357142857	629.087542138107	992.836170235741	369.895090668135	836.522016501275	1422.091142772909	205.729767583042	915.034575683910	1351.842916843080	378.817065726206	811.004437861842	1423.542371444682	541.917105630731	794.594196671257	1483.955480994706	360.802628177040	848.459077456547	935.964388215961	509.205570788673	859.869129689878	946.931136440986	234.256809825982	930.675927766200	763.400721290487	490.464999696740	885.747518159509	648.863951987003	574.718637792038	977.799458529081	603.692499769950	500.933017853066	998.353631003721	498.678141287599	534.712631841504	911.568933556600	739.373190180242	277.620601893213	832.702022417715	612.612059707318	225.190226030375	918.451705385774	545.064331056696	298.616595018262	920.801850368852	471.642213742106	311.770692910920	879.545634010835	397.832425265610	310.256333867354	774.453523761155	294.462658426670	262.837984601428	802.810304580299	183.967979008087	346.048000282636	931.080503763386	419.707719192171	547.615933348264	813.865061403408	367.878952394289	605.454155405556	822.528505787087	253.344832630754	569.352569709100	638.261132490973	150.240049082854	536.744625485689	809.980460261388	136.954779899896	597.603195903696	701.483952723255	115.244178415200	621.389814422300	893.541514693879	46.813132182443	642.175997958526	653.085770998435	39.853510073415	390.019439031110	730.423728406544	35.566250569938	312.528154026060	814.410680886096	94.944877810064	341.357816478714	942.543051824467	39.951931184727	318.637646120172	921.522509041521	1091.015637054997	66.040448713528	1125.222718897172	929.241596453611	99.141889855702	750.317044259237	1075.756149746728	650.708128901222	819.671011966915	824.250282685949	658.032961854529	
109	30.962285714286	628.035337125886	994.876624711706	366.822149161425	837.495478373527	1423.513041139582	204.267970435014	913.362714709305	1354.043419750888	378.724575402002	806.785111939458	1426.554233326689	539.884496980587	793.197330281423	1485.719681762736	358.570302526285	845.662319787636	937.662585190227	508.604295197675	860.022631623188	948.604979138191	233.799772103910	926.950086268879	765.190848588145	490.388689330978	881.263133800634	650.451073595912	574.125252389778	973.458580656132	605.451268622197	500.902868985695	995.321323902301	502.138950100635	534.626929872641	908.177009902890	739.361061603567	276.459134064907	827.149048701289	613.839671182086	223.480336933391	911.526520464073	545.066953406470	296.787351116895	912.771562530170	472.229730112560	310.006093624563	872.088378993871	398.761440425646	308.523376702320	767.385625232270	294.738928532777	261.543634569110	796.941175866463	184.650483545339	345.195945767346	931.492436498234	421.549119568798	547.231898656243	817.247588739658	363.763552676187	604.745424578655	832.127445943625	249.913975831167	568.410001089321	654.189756028425	135.690980134197	535.311082335609	826.163476288086	133.518972599549	595.966568857598	719.572170476385	105.064763909537	620.096551103669	915.421677910033	49.257856564923	640.807856569706	648.007306948537	39.890424632502	389.900884635360	725.382565094350	35.513163032293	312.448251225297	809.414655657262	95.016756371630	341.062013442763	937.493327287070	40.063008453237	318.680994844382	929.896153442720	1095.757715072891	63.582004864474	1144.294455462771	948.798495563042	97.431557546048	724.749764180216	1084.363562957560	648.374322842367	773.653253960481	827.053915893606	654.747400396221	
110	30.987214285714	627.038744284412	996.957131930511	364.147039795261	838.527107191850	1424.834076000054	203.188999298531	911.683839636875	1356.229378776187	379.010131010451	802.640258263620	1429.727466492270	538.107529322827	791.856681296923	1487.478332607023	356.634513084146	842.847208349153	939.282861128449	508.501249150148	860.225228764374	950.317746721630	233.843473874870	922.786649145623	766.539900588329	490.715981225524	875.949030323997	651.644347483036	573.754787725100	968.118899373354	606.574186667292	501.151159855755	991.085945540386	505.174853342025	534.652918426979	904.640995622622	739.389438344028	275.831877430473	821.456039418541	615.182189343992	222.121226092881	904.252470506020	545.136982203602	295.402265912327	904.307869961490	472.918958709946	308.667748886492	864.341738837969	399.803927143852	307.107460473989	760.217659706239	295.036026868017	260.448450450004	790.964397470605	185.347355216177	344.481500520074	931.152490795168	423.021373332348	547.112631631003	820.632324448956	359.015886428219	604.903602960374	841.861666036262	246.119825321013	568.226271978285	670.845048173762	120.740605433631	535.576926678916	842.883073623552	129.665083613781	595.021879638774	738.673456648228	94.465623959121	620.076523131708	937.894723683364	51.760863035230	639.556028180303	642.928396806113	39.899335799816	389.792795224596	720.334897022955	35.454621645299	312.372597147997	804.394376528366	95.090584522257	340.809294673724	932.439726175696	40.192300064545	318.732295809149	937.876441265493	1100.401688245074	61.790768335487	1161.656241986579	968.645467030586	96.368775640490	700.638437583788	1094.180108283100	645.936051133202	730.995872865801	833.224949371791	651.116411055598	
111	31.012142857143	626.044951573692	998.932351624704	361.865506175645	839.584909759275	1425.950771668129	202.502669268603	909.981386776317	1358.258147595549	379.664460301864	798.576584793611	1432.858944007611	536.624040981372	790.567061879820	1489.109805592173	355.023377740828	839.996916885503	940.719650539829	508.863517353636	860.419402019320	951.947504106370	234.343148077086	918.355269089722	767.463564856383	491.415172357894	870.062836785560	652.437766329547	573.609406709580	962.122780642003	607.126260093121	501.697764862324	985.963627978400	507.763203420406	534.779144139458	901.019555323416	739.400250770108	275.709758555141	815.755711757602	616.547849651221	221.105352939425	896.801154590285	545.226903251655	294.467885870408	895.614933135517	473.640980457759	307.767662666252	856.475614227225	400.881933864098	306.023904709766	753.079707431141	295.316919085940	259.549155760545	784.934872213068	186.011102557346	343.912417383203	930.247105739346	424.155610464002	547.201567006040	824.051966857393	353.972883774741	605.784997518270	851.506373485734	242.294802934439	568.660311073545	687.766486876971	106.271529537673	537.244531092973	859.624957160567	125.751744006827	594.610067880927	758.170630569181	84.148945234555	621.067965741158	960.151300714623	54.312443005759	638.330907893394	637.849278662872	39.878556451008	389.696881323576	715.280693419778	35.389582426149	312.299607935941	799.346228871636	95.156161537793	340.606262766430	927.382550651496	40.332512610768	318.788793966539	945.449584710388	1104.777713685745	60.709911147424	1177.249827953749	988.329204460443	95.994213064680	678.346124285264	1104.574037217463	643.349330843000	692.296657037998	841.698251940590	647.238678549989	
